<svg width="25" height="25" viewBox="0 0 25 25" fill="none" xmlns="http://www.w3.org/2000/svg">
<path d="M21.1321 5.49185H9.97681C9.67012 4.58096 8.80855 3.92285 7.79556 3.92285C6.78257 3.92285 5.921 4.58096 5.61431 5.49185H3.87305C3.46855 5.49185 3.14062 5.81978 3.14062 6.22427C3.14062 6.62876 3.46855 6.95669 3.87305 6.95669H5.61436C5.92104 7.86758 6.78262 8.52568 7.79561 8.52568C8.80859 8.52568 9.67017 7.86758 9.97685 6.95669H21.1322C21.5367 6.95669 21.8646 6.62876 21.8646 6.22427C21.8646 5.81978 21.5367 5.49185 21.1321 5.49185ZM7.79556 7.06084C7.33428 7.06084 6.95898 6.68555 6.95898 6.22427C6.95898 5.76299 7.33428 5.3877 7.79556 5.3877C8.25684 5.3877 8.63213 5.76299 8.63213 6.22427C8.63213 6.68555 8.25684 7.06084 7.79556 7.06084Z" fill="white" fill-opacity="0.5"/>
<path d="M21.1321 11.7677H19.3908C19.0841 10.8568 18.2225 10.1987 17.2096 10.1987C16.1966 10.1987 15.3351 10.8568 15.0284 11.7677H3.87305C3.46855 11.7677 3.14062 12.0957 3.14062 12.5001C3.14062 12.9046 3.46855 13.2326 3.87305 13.2326H15.0284C15.3351 14.1435 16.1967 14.8016 17.2096 14.8016C18.2226 14.8016 19.0842 14.1435 19.3909 13.2326H21.1322C21.5367 13.2326 21.8646 12.9046 21.8646 12.5001C21.8646 12.0957 21.5367 11.7677 21.1321 11.7677ZM17.2096 13.3367C16.7483 13.3367 16.373 12.9614 16.373 12.5001C16.373 12.0389 16.7483 11.6636 17.2096 11.6636C17.6709 11.6636 18.0462 12.0389 18.0462 12.5001C18.0462 12.9614 17.6709 13.3367 17.2096 13.3367Z" fill="white" fill-opacity="0.5"/>
<path d="M21.1321 18.0438H13.1148C12.8082 17.133 11.9466 16.4749 10.9336 16.4749C9.92061 16.4749 9.05903 17.133 8.75234 18.0438H3.87305C3.46855 18.0438 3.14062 18.3718 3.14062 18.7763C3.14062 19.1808 3.46855 19.5087 3.87305 19.5087H8.75234C9.05903 20.4196 9.92061 21.0777 10.9336 21.0777C11.9466 21.0777 12.8082 20.4196 13.1148 19.5087H21.1322C21.5367 19.5087 21.8646 19.1808 21.8646 18.7763C21.8646 18.3718 21.5367 18.0438 21.1321 18.0438ZM10.9336 19.6129C10.4723 19.6129 10.097 19.2376 10.097 18.7763C10.097 18.315 10.4723 17.9397 10.9336 17.9397C11.3949 17.9397 11.7702 18.315 11.7702 18.7763C11.7702 19.2375 11.3949 19.6129 10.9336 19.6129Z" fill="white" fill-opacity="0.5"/>
</svg>
